<?xml version="1.0" encoding="utf-8"?>
<!-- Generator: Adobe Illustrator 24.0.0, SVG Export Plug-In . SVG Version: 6.00 Build 0)  -->
<svg version="1.1" id="Lag_1" xmlns="http://www.w3.org/2000/svg" xmlns:xlink="http://www.w3.org/1999/xlink" x="0px" y="0px"
	 viewBox="0 0 691.77 293.99" style="enable-background:new 0 0 691.77 293.99;" xml:space="preserve">
<g>
	<path d="M304.88,256.19c-2.89,4.15-9.81,13.87-22.7,13.87c-11.97,0-21.15-9.62-21.15-21.62c0-15.32,15.78-29.28,32.09-29.28
		c9.18,0,15.16,5.18,15.16,11.69c0,3.93-2.47,7.04-6.49,7.04c-3.72,0-5.68-2.49-5.68-6.41c0-3,3.51-4.76,3.51-6.72
		c0-1.46-2.47-2.8-5.99-2.8c-12.59,0-18.78,27.52-18.78,34.75c0,6.62,2.78,10.57,9.38,10.57c8.99,0,16.11-9.22,18.68-12.43
		L304.88,256.19z"/>
	<path d="M298.27,286.71h8.77l15.59-62.9h-8.86l0.61-2.8h8.26c4.65,0,10.12-0.41,13.94-0.83L335,226.6l0.21,0.21
		c2.48-2.69,6.3-7.66,14.24-7.66c10.53,0,17.76,9.21,17.76,20.9c0,13.35-13.11,30-27.96,30c-7.86,0-10.74-5.89-11.78-7.96
		l-6.29,24.63h9.91l-0.62,2.8h-32.93L298.27,286.71z M338.2,267.26c11.35,0,15.18-33.62,15.18-38.17c0-4.45-1.97-7.14-6-7.14
		c-14.02,0-18.26,27.82-18.26,34.55C329.13,263.22,333.46,267.26,338.2,267.26"/>
	<path d="M388.25,198.56h-8.87l0.62-2.8h8.26c4.65,0,10.01-0.41,13.83-0.83l-8.16,34.87l0.21,0.21c2.48-3,11.04-10.87,20.64-10.87
		c5.88,0,10.53,3.21,10.53,7.56c0,3.4-0.63,6.1-1.45,8.79l-4.44,17.38c-0.93,3.52-1.97,7.45-1.97,8.9c0,1.66,0.41,3,2.27,3
		c4.14,0,8.78-8.9,9.91-11.07l1.96,0.93c-2.06,4.65-6.7,15.42-18.27,15.42c-5.27,0-9.7-3.21-9.7-7.87c0-2.79,0.93-6.41,1.66-9.31
		l4.95-19.24c0.52-1.97,1.24-4.66,1.24-6.11c0-1.76-1.45-3.1-4.02-3.1c-2.69,0-6.61,2.38-10.02,6.11
		c-3.51,3.72-5.47,10.13-6.39,13.35l-5.88,24.31h-14.03L388.25,198.56z"/>
	<path d="M679.85,146.4c-4.58,0-8.26-3.69-8.26-8.32c0-4.58,3.65-8.31,8.29-8.31c4.58,0,8.26,3.73,8.26,8.31
		C688.15,142.71,684.47,146.4,679.85,146.4 M679.89,131.47c-3.65,0-6.52,2.95-6.52,6.61c0,3.67,2.87,6.65,6.48,6.65
		c3.62,0,6.52-2.98,6.52-6.65C686.37,134.43,683.47,131.47,679.89,131.47 M678.83,142.82h-2.52v-9.64h4.22
		c0.79,0,1.42,0.15,1.92,0.4c0.88,0.46,1.46,1.28,1.46,2.49c0,1.68-0.93,2.52-1.99,2.95l2.3,3.81h-2.87l-1.95-3.41h-0.56V142.82z
		 M678.83,137.38h1.09c0.93,0,1.46-0.36,1.46-1.07c0-0.78-0.56-1.07-1.6-1.07h-0.95V137.38z"/>
	<path d="M138.68,52.58l-33.84,0.19c-5.67-13.09-15.69-20.67-31-20.67c-22.88,0-36.49,17.82-36.49,43.78
		c0,26.92,13.8,44.54,37.24,44.54c20.81,0,30.25-11.75,33.46-25.97c-6.05,0.19-11.15,0.19-17.39,0.19H66.45V69.45h72.22v74.67
		h-28.93v-7.2c0-3.03,0.19-5.69,0.19-7.59h-0.19c-7.56,9.48-22.31,17.25-41.78,17.25C30.71,146.59,5,118.17,5,76.27
		C5,34.38,32.23,6.14,74.39,6.14C107.1,6.14,130.16,23.57,138.68,52.58"/>
	<path d="M196.52,144.13h-30.82V8.6h49.91c15.88,0,27.04,1.71,36.49,8.34c9.83,7.2,15.32,18.57,15.32,31.66
		c0,23.68-14.38,36.2-29.88,41.31l33.84,54.21h-34.78l-28.56-48.9h-11.53V144.13z M196.52,70.4h17.39
		c14.56,0,23.25-5.87,23.25-17.82c0-12.9-9.07-17.63-25.32-17.63h-15.32V70.4z"/>
	<path d="M364.41,88.4V8.6h31.01v80.75c0,17.06-3.6,29.19-10.59,38.47c-9.08,12.13-23.82,18.58-43.68,18.58
		c-19.85,0-34.59-6.45-43.67-18.58c-6.99-9.29-10.59-21.42-10.59-38.47V8.6h31v79.8c0,21.04,8.33,31.47,23.26,31.47
		C356.1,119.87,364.41,109.44,364.41,88.4"/>
	<path d="M539.11,144.13H499.6l-29.3-56.87c-9.27-18-16.83-33.54-19.85-41.51h-0.19c0.38,10.99,0.38,29,0.38,43.03v55.35h-28.54V8.6
		h40.08l34.41,67.86c6.81,13.46,11.34,24.64,14.37,31.28h0.19c-0.38-11.18-0.57-24.64-0.57-39.23V8.6h28.55V144.13z"/>
	<path d="M567.09,8.6h33.65c6.24,0,12.87,0,19.48,0.19c40.08,1.51,65.79,25.58,65.79,67.1c0,23.31-10.58,47.76-27.41,56.87
		c-15.31,10.61-33.28,11.37-58.24,11.37h-33.27V8.6z M598.1,117.78h10.58c7.94,0,14.75-0.76,20.23-2.46
		c15.88-4.74,24.39-17.06,24.39-39.24c0-20.84-8.7-33.74-24.39-38.85c-5.11-1.71-11.16-2.47-18.34-2.47H598.1V117.78z"/>
</g>
</svg>
