<svg width="20" height="21" viewBox="0 0 20 21" fill="none" xmlns="http://www.w3.org/2000/svg">
<path d="M7.09397 2.49219H13.7855C16.3347 2.49219 18.4058 4.56337 18.4058 7.11253V13.8041C18.4058 15.0294 17.9191 16.2046 17.0526 17.0711C16.1861 17.9376 15.0109 18.4244 13.7855 18.4244H7.09397C4.54482 18.4244 2.47363 16.3532 2.47363 13.8041V7.11253C2.47363 5.88714 2.96042 4.71194 3.8269 3.84545C4.69338 2.97897 5.86858 2.49219 7.09397 2.49219ZM6.93465 4.08541C6.17406 4.08541 5.44463 4.38755 4.90681 4.92537C4.369 5.46318 4.06685 6.19262 4.06685 6.9532V13.9634C4.06685 15.5486 5.3494 16.8312 6.93465 16.8312H13.9448C14.7054 16.8312 15.4348 16.529 15.9727 15.9912C16.5105 15.4534 16.8126 14.724 16.8126 13.9634V6.9532C16.8126 5.36795 15.5301 4.08541 13.9448 4.08541H6.93465ZM14.6219 5.28032C14.886 5.28032 15.1393 5.38523 15.3261 5.57198C15.5128 5.75872 15.6177 6.01199 15.6177 6.27609C15.6177 6.54018 15.5128 6.79346 15.3261 6.9802C15.1393 7.16694 14.886 7.27185 14.6219 7.27185C14.3578 7.27185 14.1046 7.16694 13.9178 6.9802C13.7311 6.79346 13.6262 6.54018 13.6262 6.27609C13.6262 6.01199 13.7311 5.75872 13.9178 5.57198C14.1046 5.38523 14.3578 5.28032 14.6219 5.28032ZM10.4397 6.47524C11.4961 6.47524 12.5092 6.89488 13.2562 7.64185C14.0031 8.38881 14.4228 9.40192 14.4228 10.4583C14.4228 11.5147 14.0031 12.5278 13.2562 13.2747C12.5092 14.0217 11.4961 14.4413 10.4397 14.4413C9.38336 14.4413 8.37026 14.0217 7.62329 13.2747C6.87633 12.5278 6.45668 11.5147 6.45668 10.4583C6.45668 9.40192 6.87633 8.38881 7.62329 7.64185C8.37026 6.89488 9.38336 6.47524 10.4397 6.47524ZM10.4397 8.06846C9.80591 8.06846 9.19805 8.32024 8.74987 8.76842C8.30169 9.2166 8.0499 9.82447 8.0499 10.4583C8.0499 11.0921 8.30169 11.7 8.74987 12.1482C9.19805 12.5963 9.80591 12.8481 10.4397 12.8481C11.0736 12.8481 11.6814 12.5963 12.1296 12.1482C12.5778 11.7 12.8296 11.0921 12.8296 10.4583C12.8296 9.82447 12.5778 9.2166 12.1296 8.76842C11.6814 8.32024 11.0736 8.06846 10.4397 8.06846Z" fill="#1E201F"/>
</svg>
