<svg width="20" height="21" viewBox="0 0 20 21" fill="none" xmlns="http://www.w3.org/2000/svg">
<path d="M15.8981 3.28882C16.3207 3.28882 16.7259 3.45667 17.0247 3.75546C17.3235 4.05425 17.4913 4.45949 17.4913 4.88204V16.0346C17.4913 16.4571 17.3235 16.8624 17.0247 17.1612C16.7259 17.4599 16.3207 17.6278 15.8981 17.6278H4.74556C4.32302 17.6278 3.91777 17.4599 3.61899 17.1612C3.3202 16.8624 3.15234 16.4571 3.15234 16.0346V4.88204C3.15234 4.45949 3.3202 4.05425 3.61899 3.75546C3.91777 3.45667 4.32302 3.28882 4.74556 3.28882H15.8981ZM15.4998 15.6363V11.4142C15.4998 10.7255 15.2262 10.0649 14.7392 9.57792C14.2522 9.0909 13.5916 8.81729 12.9029 8.81729C12.2257 8.81729 11.4371 9.23153 11.0547 9.85289V8.96865H8.83217V15.6363H11.0547V11.709C11.0547 11.0956 11.5486 10.5937 12.162 10.5937C12.4578 10.5937 12.7415 10.7112 12.9506 10.9204C13.1598 11.1295 13.2773 11.4132 13.2773 11.709V15.6363H15.4998ZM6.24319 7.71797C6.59813 7.71797 6.93854 7.57697 7.18952 7.32599C7.4405 7.07501 7.5815 6.73461 7.5815 6.37967C7.5815 5.63882 6.98404 5.03339 6.24319 5.03339C5.88614 5.03339 5.54371 5.17523 5.29123 5.42771C5.03876 5.68018 4.89692 6.02261 4.89692 6.37967C4.89692 7.12051 5.50234 7.71797 6.24319 7.71797ZM7.35048 15.6363V8.96865H5.14387V15.6363H7.35048Z" fill="#1E201F"/>
</svg>
